<svg width="1358" height="201" viewBox="0 0 1358 201" fill="none" xmlns="http://www.w3.org/2000/svg">
<path d="M43.6437 47.6261C46.0599 39.1688 53.7178 33.2828 62.512 33.1234L1267.27 11.2946C1276.74 11.123 1285.03 17.6201 1287.13 26.8577L1321.03 175.958C1323.87 188.474 1314.36 200.392 1301.52 200.392H26.514C13.2266 200.392 3.63335 187.674 7.2834 174.898L43.6437 47.6261Z" fill="#413E4F"/>
<path d="M75.0612 36.6261C77.4773 28.1688 85.1353 22.2828 93.9295 22.1234L1298.68 0.294607C1308.15 0.122989 1316.45 6.62009 1318.55 15.8577L1352.44 164.958C1355.29 177.474 1345.78 189.392 1332.94 189.392H57.9315C44.6441 189.392 35.0508 176.674 38.7009 163.898L75.0612 36.6261Z" fill="#7DC788"/>
<circle cx="116.365" cy="38.9999" r="7.6278" fill="#D9D9D9"/>
<circle cx="1273.05" cy="19.9999" r="7.6278" fill="#D9D9D9"/>
<circle cx="1305.64" cy="167" r="7.6278" fill="#D9D9D9"/>
<circle cx="83.784" cy="169" r="7.6278" fill="#D9D9D9"/>
<path d="M43.6437 47.6261C46.0599 39.1688 53.7178 33.2828 62.512 33.1234L1267.27 11.2946C1276.74 11.123 1285.03 17.6201 1287.13 26.8577L1321.03 175.958C1323.87 188.474 1314.36 200.392 1301.52 200.392H26.514C13.2266 200.392 3.63335 187.674 7.2834 174.898L43.6437 47.6261Z" fill="#413E4F"/>
<path d="M75.0612 36.6261C77.4773 28.1688 85.1353 22.2828 93.9295 22.1234L1298.68 0.294607C1308.15 0.122989 1316.45 6.62009 1318.55 15.8577L1352.44 164.958C1355.29 177.474 1345.78 189.392 1332.94 189.392H57.9315C44.6441 189.392 35.0508 176.674 38.7009 163.898L75.0612 36.6261Z" fill="#9591A8"/>
<circle cx="116.365" cy="38.9999" r="7.6278" fill="#D9D9D9"/>
<circle cx="1273.05" cy="19.9999" r="7.6278" fill="#D9D9D9"/>
<circle cx="1305.64" cy="167" r="7.6278" fill="#D9D9D9"/>
<circle cx="83.784" cy="169" r="7.6278" fill="#D9D9D9"/>
<path d="M169.324 145.374C163.444 145.425 158.032 144.092 153.089 141.375C148.145 138.658 144.212 134.882 141.29 130.047C138.367 125.152 136.879 119.615 136.825 113.435C136.772 107.315 138.164 101.813 141.002 96.9283C143.839 91.9834 147.706 88.1097 152.601 85.307C157.497 82.5044 162.885 81.0775 168.765 81.0264C174.705 80.9748 180.116 82.3079 185 85.0255C189.944 87.7427 193.847 91.5489 196.71 96.4442C199.632 101.279 201.12 106.756 201.173 112.876C201.226 119.056 199.835 124.618 196.998 129.563C194.22 134.447 190.383 138.291 185.487 141.093C180.592 143.896 175.204 145.323 169.324 145.374ZM169.226 134.124C173.006 134.092 176.329 133.223 179.194 131.518C182.059 129.753 184.287 127.273 185.88 124.079C187.472 120.885 188.25 117.189 188.213 112.989C188.177 108.789 187.335 105.136 185.688 102.03C184.04 98.8644 181.769 96.454 178.875 94.7991C175.98 93.1442 172.643 92.3332 168.863 92.366C165.083 92.3989 161.731 93.268 158.806 94.9735C155.94 96.6785 153.712 99.1279 152.119 102.322C150.526 105.456 149.748 109.123 149.785 113.323C149.821 117.522 150.663 121.205 152.311 124.371C153.958 127.537 156.23 129.977 159.125 131.692C162.079 133.347 165.446 134.157 169.226 134.124ZM266.703 81.0755L244.21 144.093L228.91 144.226L205.325 81.6088L218.825 81.4915L236.538 131.289L253.294 81.192L266.703 81.0755ZM286.945 91.07L287.082 106.819L308.231 106.636L308.318 116.625L287.169 116.809L287.313 133.458L311.162 133.251L311.252 143.511L274.803 143.827L274.256 80.9199L310.705 80.6032L310.794 90.8628L286.945 91.07ZM355.1 143.13L341.028 118.771L335.088 118.823L335.301 143.302L322.702 143.411L322.156 80.5937L345.735 80.3888C350.595 80.3466 354.742 81.1806 358.177 82.8908C361.611 84.541 364.181 86.8288 365.887 89.7541C367.652 92.6188 368.55 95.8512 368.581 99.451C368.617 103.591 367.45 107.351 365.079 110.732C362.708 114.053 359.158 116.364 354.429 117.665L369.68 143.003L355.1 143.13ZM335.006 109.373L345.536 109.282C348.956 109.252 351.499 108.42 353.164 106.785C354.83 105.091 355.65 102.773 355.624 99.8336C355.599 96.9537 354.74 94.7411 353.046 93.1958C351.352 91.5904 348.795 90.8026 345.376 90.8323L334.846 90.9238L335.006 109.373ZM418.77 130.606L393.751 130.824L389.715 142.829L376.486 142.944L398.528 79.8401L413.198 79.7126L436.333 142.424L423.014 142.54L418.77 130.606ZM415.263 120.556L405.945 94.3562L397.083 120.714L415.263 120.556ZM457.29 132.252L477.989 132.072L478.076 142.061L444.777 142.351L444.231 79.533L456.831 79.4235L457.29 132.252ZM498.597 131.893L519.296 131.713L519.383 141.702L486.084 141.992L485.538 79.1741L498.138 79.0646L498.597 131.893ZM545.502 109.974C545.448 103.794 546.78 98.2627 549.498 93.3789C552.275 88.4346 556.052 84.5916 560.828 81.85C565.664 79.0479 571.082 77.6208 577.082 77.5686C584.101 77.5076 590.267 79.2541 595.578 82.8081C600.889 86.3621 604.622 91.3099 606.777 97.6514L592.288 97.7773C590.822 94.7899 588.762 92.5577 586.109 91.0807C583.516 89.6032 580.51 88.8793 577.09 88.909C573.43 88.9408 570.168 89.8392 567.303 91.6041C564.498 93.3085 562.299 95.7277 560.706 98.8617C559.173 101.995 558.425 105.662 558.461 109.862C558.497 114.001 559.309 117.655 560.897 120.821C562.544 123.927 564.785 126.337 567.62 128.053C570.514 129.708 573.792 130.519 577.451 130.487C580.871 130.458 583.865 129.682 586.432 128.159C589.058 126.576 591.078 124.279 592.492 121.266L606.981 121.14C604.937 127.578 601.291 132.62 596.042 136.266C590.853 139.851 584.719 141.675 577.639 141.736C571.639 141.788 566.198 140.486 561.315 137.828C556.491 135.11 552.648 131.333 549.786 126.498C546.984 121.662 545.556 116.154 545.502 109.974ZM647.079 141.223C641.2 141.274 635.788 139.941 630.844 137.224C625.9 134.507 621.967 130.731 619.045 125.896C616.122 121.001 614.634 115.464 614.581 109.284C614.527 103.164 615.92 97.6619 618.757 92.7771C621.594 87.8323 625.461 83.9585 630.357 81.1559C635.253 78.3532 640.64 76.9264 646.52 76.8753C652.46 76.8237 657.872 78.1567 662.756 80.8744C667.699 83.5915 671.603 87.3977 674.465 92.2931C677.387 97.1278 678.875 102.605 678.928 108.725C678.982 114.905 677.59 120.467 674.753 125.412C671.975 130.296 668.139 134.14 663.243 136.942C658.347 139.745 652.959 141.172 647.079 141.223ZM646.982 129.973C650.761 129.94 654.084 129.072 656.949 127.367C659.814 125.602 662.043 123.122 663.635 119.928C665.227 116.734 666.005 113.037 665.969 108.838C665.932 104.638 665.09 100.985 663.443 97.879C661.796 94.7132 659.525 92.3029 656.63 90.648C653.736 88.993 650.399 88.182 646.619 88.2148C642.839 88.2477 639.486 89.1168 636.561 90.8223C633.696 92.5273 631.467 94.9767 629.875 98.1707C628.282 101.305 627.504 104.972 627.54 109.171C627.577 113.371 628.419 117.054 630.066 120.22C631.714 123.386 633.985 125.826 636.88 127.541C639.835 129.195 643.202 130.006 646.982 129.973ZM717.741 140.609C711.861 140.66 706.449 139.327 701.505 136.61C696.562 133.893 692.629 130.117 689.707 125.282C686.784 120.387 685.296 114.85 685.242 108.67C685.189 102.55 686.581 97.048 689.419 92.1631C692.256 87.2183 696.122 83.3445 701.018 80.5419C705.914 77.7393 711.302 76.3124 717.182 76.2613C723.121 76.2097 728.533 77.5427 733.417 80.2604C738.361 82.9775 742.264 86.7838 745.127 91.6791C748.049 96.5139 749.536 101.991 749.59 108.111C749.643 114.291 748.252 119.853 745.414 124.798C742.637 129.682 738.8 133.526 733.904 136.328C729.008 139.131 723.621 140.558 717.741 140.609ZM717.643 129.359C721.423 129.326 724.745 128.458 727.611 126.753C730.476 124.988 732.704 122.508 734.296 119.314C735.889 116.12 736.667 112.423 736.63 108.224C736.594 104.024 735.752 100.371 734.105 97.2651C732.457 94.0993 730.186 91.6889 727.292 90.034C724.397 88.3791 721.06 87.568 717.28 87.6009C713.5 87.6337 710.148 88.5029 707.222 90.2084C704.357 91.9133 702.128 94.3628 700.536 97.5567C698.943 100.691 698.165 104.358 698.202 108.557C698.238 112.757 699.08 116.44 700.728 119.606C702.375 122.772 704.646 125.212 707.541 126.927C710.496 128.581 713.863 129.392 717.643 129.359ZM791.637 139.337L777.564 114.978L771.625 115.03L771.837 139.509L759.238 139.618L758.692 76.8007L782.271 76.5958C787.131 76.5536 791.278 77.3876 794.713 79.0978C798.148 80.748 800.718 83.0357 802.423 85.961C804.188 88.8258 805.086 92.0581 805.118 95.658C805.154 99.7978 803.986 103.558 801.615 106.939C799.244 110.26 795.694 112.571 790.965 113.872L806.216 139.21L791.637 139.337ZM771.542 105.58L782.072 105.489C785.492 105.459 788.035 104.627 789.701 102.992C791.366 101.298 792.186 98.9805 792.16 96.0406C792.135 93.1607 791.276 90.9481 789.583 89.4027C787.889 87.7974 785.332 87.0096 781.912 87.0393L771.382 87.1308L771.542 105.58ZM838.305 76.1089C844.905 76.0516 850.706 77.2912 855.708 79.8278C860.77 82.364 864.672 86.0202 867.414 90.7965C870.215 95.5124 871.643 101.02 871.698 107.32C871.752 113.62 870.42 119.151 867.702 123.915C865.042 128.619 861.204 132.282 856.187 134.906C851.229 137.529 845.451 138.869 838.851 138.927L816.892 139.117L816.346 76.2997L838.305 76.1089ZM838.308 128.221C844.908 128.164 849.992 126.319 853.56 122.688C857.129 119.057 858.885 113.972 858.828 107.432C858.771 100.892 856.927 95.8079 853.295 92.1793C849.663 88.4907 844.547 86.6751 837.947 86.7324L829.038 86.8098L829.398 128.298L838.308 128.221ZM893.455 75.6297L894.001 138.447L881.401 138.557L880.855 75.7392L893.455 75.6297ZM960.177 137.872L947.577 137.982L918.674 95.1213L919.049 138.23L906.449 138.339L905.902 75.4316L918.502 75.3221L947.406 118.273L947.031 75.0742L959.63 74.9647L960.177 137.872ZM1011.04 125.46L986.024 125.677L981.988 137.683L968.758 137.798L990.801 74.6939L1005.47 74.5664L1028.61 137.278L1015.29 137.394L1011.04 125.46ZM1007.54 115.41L998.217 89.21L989.356 115.568L1007.54 115.41ZM1079.25 74.0153L1079.34 84.185L1062.6 84.3304L1063.06 136.978L1050.46 137.088L1050 84.4399L1033.26 84.5853L1033.17 74.4157L1079.25 74.0153ZM1118.16 137.13C1112.28 137.181 1106.86 135.848 1101.92 133.131C1096.98 130.413 1093.04 126.638 1090.12 121.803C1087.2 116.908 1085.71 111.371 1085.66 105.191C1085.6 99.0711 1087 93.5688 1089.83 88.684C1092.67 83.7391 1096.54 79.8654 1101.43 77.0627C1106.33 74.2601 1111.72 72.8332 1117.6 72.7821C1123.54 72.7305 1128.95 74.0636 1133.83 76.7812C1138.78 79.4984 1142.68 83.3046 1145.54 88.1999C1148.46 93.0347 1149.95 98.512 1150 104.632C1150.06 110.812 1148.67 116.374 1145.83 121.319C1143.05 126.203 1139.21 130.046 1134.32 132.849C1129.42 135.652 1124.04 137.079 1118.16 137.13ZM1118.06 125.88C1121.84 125.847 1125.16 124.978 1128.03 123.273C1130.89 121.508 1133.12 119.029 1134.71 115.835C1136.3 112.641 1137.08 108.944 1137.04 104.744C1137.01 100.545 1136.17 96.8917 1134.52 93.7859C1132.87 90.6201 1130.6 88.2097 1127.71 86.5548C1124.81 84.8999 1121.47 84.0889 1117.69 84.1217C1113.91 84.1546 1110.56 85.0237 1107.64 86.7292C1104.77 88.4342 1102.54 90.8836 1100.95 94.0776C1099.36 97.2115 1098.58 100.878 1098.62 105.078C1098.65 109.278 1099.49 112.961 1101.14 116.127C1102.79 119.293 1105.06 121.733 1107.96 123.448C1110.91 125.102 1114.28 125.913 1118.06 125.88ZM1192.05 135.858L1177.98 111.499L1172.04 111.551L1172.25 136.03L1159.65 136.139L1159.11 73.3215L1182.69 73.1166C1187.55 73.0744 1191.69 73.9084 1195.13 75.6186C1198.56 77.2688 1201.13 79.5566 1202.84 82.4819C1204.6 85.3467 1205.5 88.579 1205.53 92.1788C1205.57 96.3187 1204.4 100.079 1202.03 103.46C1199.66 106.78 1196.11 109.091 1191.38 110.392L1206.63 135.731L1192.05 135.858ZM1171.96 102.101L1182.49 102.009C1185.91 101.98 1188.45 101.148 1190.12 99.5131C1191.78 97.8185 1192.6 95.5013 1192.57 92.5614C1192.55 89.6815 1191.69 87.4689 1190 85.9236C1188.3 84.3182 1185.75 83.5304 1182.33 83.5601L1171.8 83.6516L1171.96 102.101Z" fill="white"/>
<path d="M1208 72H1272.64V80.4766L1267.05 80.6328V139.031H1263.85L1258.81 133.914V108.133L1241.86 108.055L1238.38 104.617H1236.55L1235.84 106.219L1234.79 108.055L1233.77 109.656L1231.35 111.492L1229.28 112.391L1227.21 112.938L1226.98 114.227L1227.6 116.062L1228.38 117.898L1229.28 119.5L1230.57 121.57L1232.02 123.836L1233.77 125.75L1235.61 127.977L1237.21 129.578L1238.89 131.023L1240.41 132.391L1242.02 133.758L1244.32 135.75L1246.55 137.117H1248.38V139.188H1245.53L1242.48 137.195L1240.41 135.828L1237.52 133.992L1235.22 131.844L1232.17 129.578L1229.2 126.805L1226.08 123.602L1223.62 121.102L1221.94 118.562L1220.14 116.062L1219.36 114.227L1218.46 111.102V108.641L1218.73 105.984L1219.59 103.758L1220.8 101.922L1222.8 100.633L1225.1 99.6562H1227.91V82L1208.5 82.5L1208 72ZM1236.31 80.6328V101.258L1258.81 101.18V80.6328H1236.31Z" fill="white"/>
</svg>
