<svg width="584" height="201" viewBox="0 0 584 201" fill="none" xmlns="http://www.w3.org/2000/svg">
<path d="M18.4339 50.2226C19.6259 40.5122 27.6677 33.0893 37.4423 32.6772L532.592 11.7973C543.199 11.35 552.308 19.2687 553.34 29.8352L567.856 178.447C569.005 190.205 559.765 200.392 547.951 200.392H22.6052C10.593 200.392 1.29065 189.878 2.75422 177.955L18.4339 50.2226Z" fill="#413E4F"/>
<path d="M31.9339 39.2226C33.1259 29.5122 41.1677 22.0893 50.9423 21.6772L546.092 0.797328C556.699 0.35003 565.808 8.26873 566.84 18.8352L581.356 167.447C582.505 179.205 573.265 189.392 561.451 189.392H36.1052C24.093 189.392 14.7906 178.878 16.2542 166.955L31.9339 39.2226Z" fill="#7DC788"/>
<circle cx="50" cy="39" r="5" fill="#D9D9D9"/>
<circle cx="547" cy="20" r="5" fill="#D9D9D9"/>
<circle cx="561" cy="167" r="5" fill="#D9D9D9"/>
<circle cx="36" cy="169" r="5" fill="#D9D9D9"/>
<path d="M18.4339 50.2226C19.6259 40.5122 27.6677 33.0893 37.4423 32.6772L532.592 11.7973C543.199 11.35 552.308 19.2687 553.34 29.8352L567.856 178.447C569.005 190.205 559.765 200.392 547.951 200.392H22.6052C10.593 200.392 1.29065 189.878 2.75422 177.955L18.4339 50.2226Z" fill="#413E4F"/>
<path d="M31.9339 39.2226C33.1259 29.5122 41.1677 22.0893 50.9423 21.6772L546.092 0.797328C556.699 0.35003 565.808 8.26873 566.84 18.8352L581.356 167.447C582.505 179.205 573.265 189.392 561.451 189.392H36.1052C24.093 189.392 14.7906 178.878 16.2542 166.955L31.9339 39.2226Z" fill="#9591A8"/>
<circle cx="50" cy="39" r="5" fill="#D9D9D9"/>
<circle cx="547" cy="20" r="5" fill="#D9D9D9"/>
<circle cx="561" cy="167" r="5" fill="#D9D9D9"/>
<circle cx="36" cy="169" r="5" fill="#D9D9D9"/>
<path d="M240.826 66.18V76.35H224.086V129H211.486V76.35H194.746V66.18H240.826ZM262.62 76.35V92.1H283.77V102.09H262.62V118.74H286.47V129H250.02V66.09H286.47V76.35H262.62ZM336.44 117.03H311.42L307.28 129H294.05L316.64 66.09H331.31L353.9 129H340.58L336.44 117.03ZM333.02 106.95L323.93 80.67L314.84 106.95H333.02Z" fill="white"/>
<path d="M350.688 64.8125L406.43 64.6562L406.586 73.2891H398.695V131.844H395.492L390.375 126.727V102.547H369.555V111.219H364.516L354.125 100.867V95.6719H361.078V73.2891H350.688V64.8125ZM369.32 73.4453V95.6719H390.102V73.4453H369.32Z" fill="white"/>
</svg>
