<svg width="584" height="201" viewBox="0 0 584 201" fill="none" xmlns="http://www.w3.org/2000/svg">
<path d="M18.4339 50.2226C19.6259 40.5122 27.6677 33.0893 37.4423 32.6772L532.592 11.7973C543.199 11.35 552.308 19.2687 553.34 29.8352L567.856 178.447C569.005 190.205 559.765 200.392 547.951 200.392H22.6052C10.593 200.392 1.29065 189.878 2.75422 177.955L18.4339 50.2226Z" fill="#E89E4A"/>
<path d="M31.9339 39.2226C33.1259 29.5122 41.1677 22.0893 50.9423 21.6772L546.092 0.797328C556.699 0.35003 565.808 8.26873 566.84 18.8352L581.356 167.447C582.505 179.205 573.265 189.392 561.451 189.392H36.1052C24.093 189.392 14.7906 178.878 16.2542 166.955L31.9339 39.2226Z" fill="#0D92BC"/>
<circle cx="50" cy="39" r="5" fill="#D9D9D9"/>
<circle cx="547" cy="20" r="5" fill="#D9D9D9"/>
<circle cx="561" cy="167" r="5" fill="#D9D9D9"/>
<circle cx="36" cy="169" r="5" fill="#D9D9D9"/>
<path d="M448 77H485.695V85.4766H475.344L475.422 103.211L475.188 105.789L474.562 108.094L473.195 109.93L471.516 111.453L469.289 112.352L466.789 112.898L465.109 113.055L463.508 113.289L461.984 114.969L461.75 116.844L461.906 118.992L463.586 122.898L466.008 126.336L468.781 130.047L472.258 133.953L475.852 137.391L478.547 140.281L482.57 143.797L479.367 143.562L473.117 138.992L468.781 135.242L464.25 131.141L460.578 127.312L456.633 122.898L454.172 118.992L452.57 114.734L451.906 111.219L452.141 108.094L452.805 105.398L454.406 103.953L456.945 102.43L459.836 101.883H462.57L464.484 102.742L465.617 103.953L466.789 103.289L466.945 101.883V85.4766H448V77Z" fill="white"/>
<path d="M163.32 134L151 112.24H145.72V134H134.52V78.16H155.48C159.8 78.16 163.48 78.9333 166.52 80.48C169.56 81.9733 171.827 84.0267 173.32 86.64C174.867 89.2 175.64 92.08 175.64 95.28C175.64 98.96 174.573 102.293 172.44 105.28C170.307 108.213 167.133 110.24 162.92 111.36L176.28 134H163.32ZM145.72 103.84H155.08C158.12 103.84 160.387 103.12 161.88 101.68C163.373 100.187 164.12 98.1333 164.12 95.52C164.12 92.96 163.373 90.9867 161.88 89.6C160.387 88.16 158.12 87.44 155.08 87.44H145.72V103.84ZM196.97 87.2V101.2H215.77V110.08H196.97V124.88H218.17V134H185.77V78.08H218.17V87.2H196.97ZM267.228 94.96C265.948 92.6133 264.188 90.8267 261.948 89.6C259.708 88.3733 257.095 87.76 254.108 87.76C250.801 87.76 247.868 88.5067 245.308 90C242.748 91.4933 240.748 93.6267 239.308 96.4C237.868 99.1733 237.148 102.373 237.148 106C237.148 109.733 237.868 112.987 239.308 115.76C240.801 118.533 242.855 120.667 245.468 122.16C248.081 123.653 251.121 124.4 254.588 124.4C258.855 124.4 262.348 123.28 265.068 121.04C267.788 118.747 269.575 115.573 270.428 111.52H251.228V102.96H281.468V112.72C280.721 116.613 279.121 120.213 276.668 123.52C274.215 126.827 271.041 129.493 267.148 131.52C263.308 133.493 258.988 134.48 254.188 134.48C248.801 134.48 243.921 133.28 239.548 130.88C235.228 128.427 231.815 125.04 229.308 120.72C226.855 116.4 225.628 111.493 225.628 106C225.628 100.507 226.855 95.6 229.308 91.28C231.815 86.9067 235.228 83.52 239.548 81.12C243.921 78.6667 248.775 77.44 254.108 77.44C260.401 77.44 265.868 78.9867 270.508 82.08C275.148 85.12 278.348 89.4133 280.108 94.96H267.228ZM300.954 78.16V134H289.754V78.16H300.954ZM331.3 134.56C327.407 134.56 323.887 133.893 320.74 132.56C317.647 131.227 315.193 129.307 313.38 126.8C311.567 124.293 310.633 121.333 310.58 117.92H322.58C322.74 120.213 323.54 122.027 324.98 123.36C326.473 124.693 328.5 125.36 331.06 125.36C333.673 125.36 335.727 124.747 337.22 123.52C338.713 122.24 339.46 120.587 339.46 118.56C339.46 116.907 338.953 115.547 337.94 114.48C336.927 113.413 335.647 112.587 334.1 112C332.607 111.36 330.527 110.667 327.86 109.92C324.233 108.853 321.273 107.813 318.98 106.8C316.74 105.733 314.793 104.16 313.14 102.08C311.54 99.9467 310.74 97.12 310.74 93.6C310.74 90.2933 311.567 87.4133 313.22 84.96C314.873 82.5067 317.193 80.64 320.18 79.36C323.167 78.0267 326.58 77.36 330.42 77.36C336.18 77.36 340.847 78.7733 344.42 81.6C348.047 84.3733 350.047 88.2667 350.42 93.28H338.1C337.993 91.36 337.167 89.7867 335.62 88.56C334.127 87.28 332.127 86.64 329.62 86.64C327.433 86.64 325.673 87.2 324.34 88.32C323.06 89.44 322.42 91.0667 322.42 93.2C322.42 94.6933 322.9 95.9467 323.86 96.96C324.873 97.92 326.1 98.72 327.54 99.36C329.033 99.9467 331.113 100.64 333.78 101.44C337.407 102.507 340.367 103.573 342.66 104.64C344.953 105.707 346.927 107.307 348.58 109.44C350.233 111.573 351.06 114.373 351.06 117.84C351.06 120.827 350.287 123.6 348.74 126.16C347.193 128.72 344.927 130.773 341.94 132.32C338.953 133.813 335.407 134.56 331.3 134.56ZM398.77 78.16V87.2H383.89V134H372.69V87.2H357.81V78.16H398.77ZM418.142 87.2V101.2H436.942V110.08H418.142V124.88H439.342V134H406.942V78.08H439.342V87.2H418.142Z" fill="white"/>
</svg>
